HIERARCHY
ROOT Hips
{
  OFFSET -35.2597 29.1586 114.425
  CHANNELS 6 Xposition Yposition Zposition Zrotation Xrotation Yrotation
  JOINT LeftUpLeg
  {
    OFFSET 8.64259 1.95398 -2.38835
    CHANNELS 3 Zrotation Xrotation Yrotation
    JOINT LeftLeg
    {
      OFFSET 43.7702 0 0
      CHANNELS 3 Zrotation Xrotation Yrotation
      JOINT LeftFoot
      {
        OFFSET 40.6238 0 0
        CHANNELS 3 Zrotation Xrotation Yrotation
        JOINT LeftToeBase
        {
          OFFSET 12.7242 0 0
          CHANNELS 3 Zrotation Xrotation Yrotation
          End Site
          {
            OFFSET 0 0 0
          }
        }
      }
    }
  }
  JOINT RightUpLeg
  {
    OFFSET -8.2249 1.95398 -2.59336
    CHANNELS 3 Zrotation Xrotation Yrotation
    JOINT RightLeg
    {
      OFFSET 43.5653 0 0
      CHANNELS 3 Zrotation Xrotation Yrotation
      JOINT RightFoot
      {
        OFFSET 40.6238 0 0
        CHANNELS 3 Zrotation Xrotation Yrotation
        JOINT RightToeBase
        {
          OFFSET 12.7242 0 0
          CHANNELS 3 Zrotation Xrotation Yrotation
          End Site
          {
            OFFSET 0 0 0
          }
        }
      }
    }
  }
  JOINT Spine
  {
    OFFSET 0.165834 0.87714 6.61349
    CHANNELS 3 Zrotation Xrotation Yrotation
    JOINT Spine1
    {
      OFFSET 7.38963 1.71661e-005 0
      CHANNELS 3 Zrotation Xrotation Yrotation
      JOINT Spine2
      {
        OFFSET 11.9445 1.14441e-005 0
        CHANNELS 3 Zrotation Xrotation Yrotation
        JOINT Spine3
        {
          OFFSET 14.7254 4.19617e-005 0
          CHANNELS 3 Zrotation Xrotation Yrotation
          JOINT Spine4
          {
            OFFSET 10.9679 0 0
            CHANNELS 3 Zrotation Xrotation Yrotation
            JOINT RightShoulder
            {
              OFFSET 2.46616 -1.6653 3.69651
              CHANNELS 3 Zrotation Xrotation Yrotation
              JOINT RightArm
              {
                OFFSET 13.0012 0 0
                CHANNELS 3 Zrotation Xrotation Yrotation
                JOINT RightForeArm
                {
                  OFFSET 28.7848 1.62311e-005 0
                  CHANNELS 3 Zrotation Xrotation Yrotation
                  JOINT RightHand
                  {
                    OFFSET 26.5688 1.62095e-005 0
                    CHANNELS 3 Zrotation Xrotation Yrotation
                    End Site
                    {
                      OFFSET 0 0 0
                    }
                  }
                }
              }
            }
            JOINT LeftShoulder
            {
              OFFSET 2.38034 -1.29275 -3.7523
              CHANNELS 3 Zrotation Xrotation Yrotation
              JOINT LeftArm
              {
                OFFSET 16.3182 6.07031e-005 0
                CHANNELS 3 Zrotation Xrotation Yrotation
                JOINT LeftForeArm
                {
                  OFFSET 27.0901 0 0
                  CHANNELS 3 Zrotation Xrotation Yrotation
                  JOINT LeftHand
                  {
                    OFFSET 24.5451 1.51738e-005 0
                    CHANNELS 3 Zrotation Xrotation Yrotation
                    End Site
                    {
                      OFFSET 0 0 0
                    }
                  }
                }
              }
            }
            JOINT Neck
            {
              OFFSET 5.0226 -0.0266342 0
              CHANNELS 3 Zrotation Xrotation Yrotation
              JOINT Head
              {
                OFFSET 6.69364 2.86102e-005 0
                CHANNELS 3 Zrotation Xrotation Yrotation
                End Site
                {
                  OFFSET 0 0 0
                }
              }
            }
          }
        }
      }
    }
  }
}
MOTION
Frames:	7
Frame Time:	0.0416667
-145.904 99.7268 -139.933 -97.9071 40.0457 -83.9316 -171.51 1.28465 96.906 -15.9092 17.2755 0.427586 65.6811 5.33346 -0.239257 28.3966 -1.47532 2.60537 173.588 0.225571 88.5273 -18.9959 -10.2777 -0.859286 67.9966 -4.33002 -1.1899 22.9909 0.0330913 6.9894 0.326625 7.9327 -90.3505 11.0096 0.487869 -0.744061 -0.661477 0.454643 -0.764812 -23.1963 0.688933 -0.563036 -3.18364 0.688943 -0.56304 89.3438 -35.3121 -106.08 38.7955 8.02937 -11.576 -5.18249 -40.2399 -5.38238 -30.8821 4.99085 -23.4998 -87.0495 -59.184 84.5446 -21.9363 -14.7872 -0.630954 3.16113 31.7932 -4.22658 1.33636 -0.294699 -10.6701 7.87948 -1.24641 -0.655568 0.466627 -1.04765 2.43587 
-147.077 99.8063 -139.441 -98.4882 40.3183 -83.837 -171.61 -0.100527 96.0561 -15.2226 16.5155 0.275611 66.2066 5.66466 -0.379576 28.3967 -1.59504 2.8485 172.951 -0.769473 87.36 -18.3008 -11.3266 -1.03916 67.6533 -4.27455 -1.1887 23.7928 -0.215 6.8687 0.321573 7.95781 -90.2768 10.9593 0.512155 -0.599253 -0.711682 0.48527 -0.621221 -23.247 0.668552 -0.417634 -3.23438 0.66856 -0.417635 88.7044 -35.5742 -107.157 39.4977 8.30921 -8.6254 -5.00726 -37.4421 -5.28595 -24.5852 3.59573 -22.1068 -86.9593 -58.9214 84.6311 -22.8112 -14.2705 -6.07612 3.28437 34.4979 -4.35514 7.30073 -0.780442 -12.5918 7.45846 -1.38679 -0.531009 -0.00840668 -1.22756 2.02308 
-147.92 99.8177 -139.1 -98.7634 40.5989 -83.6969 -171.647 -0.645079 95.6098 -15.3553 15.9723 0.162734 66.7453 5.92434 -0.429333 27.2308 -1.69234 1.81824 172.787 -1.42381 86.8314 -17.6904 -11.6902 -1.33801 67.428 -4.27369 -1.09383 24.015 -0.26587 6.78105 0.310523 7.98546 -90.2541 10.9039 0.50063 -0.552641 -0.767057 0.475824 -0.57414 -23.3025 0.643577 -0.376627 -3.28983 0.643585 -0.376629 87.9553 -36.1567 -108.303 38.1118 9.54388 -5.4678 -5.48611 -44.6251 -5.56368 -19.1562 2.67761 -21.4909 -86.9021 -59.1652 84.7425 -22.8541 -13.9789 -12.3881 3.32667 35.3619 -4.40058 8.02782 -1.15165 -15.948 7.63897 -1.27645 0.0238256 -0.549515 -1.24441 1.66273 
-148.553 99.8174 -138.836 -98.8561 40.7751 -83.6654 -171.736 -0.955586 95.2056 -15.4865 15.7714 0.0910376 67.0674 6.14408 -0.150713 27.1317 -1.73293 1.79774 172.728 -1.69958 86.472 -17.4624 -11.8336 -1.59163 67.2527 -4.2328 -1.05258 24.3561 -0.347726 6.65672 0.292228 7.99479 -90.1997 10.8852 0.489489 -0.443185 -0.78573 0.469529 -0.464306 -23.3213 0.600059 -0.27558 -3.30869 0.600064 -0.275588 87.6451 -36.4153 -108.764 38.5402 9.8416 -2.98719 -5.64213 -46.6615 -5.66421 -15.7862 1.94136 -19.8026 -86.7935 -58.5928 84.8122 -23.6784 -13.2874 -18.0261 3.26045 34.0242 -4.33025 10.1568 -1.67395 -18.7289 7.45651 -1.18994 0.124666 -0.223635 -1.17983 1.11349 
-149.076 99.8135 -138.56 -98.9973 41.0873 -83.3559 -171.726 -1.08839 95.0626 -15.8443 15.4852 0.0407168 67.4728 6.33777 0.0510026 27.0098 -1.79127 1.78683 172.547 -2.05184 86.2338 -16.9694 -12.3509 -1.60922 66.9762 -4.27567 -0.970459 24.6886 -0.424294 6.52346 0.248641 7.96511 -90.1865 10.9443 0.408771 -0.40976 -0.726649 0.390318 -0.427348 -23.2621 0.513029 -0.267956 -3.24941 0.513005 -0.267972 87.8991 -36.7681 -108.179 38.8977 10.0724 -1.05719 -5.64082 -46.6458 -5.66323 -15.0022 1.85431 -19.9222 -86.7471 -58.609 84.8781 -23.7482 -13.0063 -22.2994 3.26106 34.019 -4.32983 12.881 -2.32477 -20.9416 6.64232 -0.700558 0.134864 0.370205 -0.694821 1.29727 
-149.657 99.7875 -138.415 -99.0147 41.6973 -83.4882 -171.92 -1.43101 94.4927 -15.9225 14.4164 0.000688867 67.8629 6.531 -0.0737656 26.5967 -1.97248 1.71777 172.486 -1.94449 85.7746 -17.2318 -12.6466 -1.90284 67.0857 -4.38614 -0.637809 24.9907 -0.508968 6.44747 0.192123 7.96459 -90.168 10.9452 0.304696 -0.363184 -0.725783 0.288427 -0.376243 -23.261 0.399743 -0.254822 -3.24836 0.399753 -0.25482 87.8238 -37.1509 -108.173 38.9814 10.1984 -0.238141 -5.60299 -46.161 -5.63838 -16.5926 2.0484 -19.7839 -86.8242 -58.2682 84.7255 -24.1142 -12.6067 -25.2739 3.23664 33.5194 -4.30228 12.836 -2.68808 -23.6291 7.09121 -0.458462 0.518667 -0.540896 -0.54664 1.19913 
-150.096 99.765 -138.373 -99.1041 42.4179 -83.3048 -171.79 -1.6653 94.4087 -16.0826 13.7366 -0.152717 68.2354 6.78285 -0.073158 26.4463 -1.96856 1.55838 172.408 -1.95185 85.5738 -17.2536 -13.5289 -1.98512 66.9541 -4.36772 -0.838682 25.4111 -0.660352 6.44438 0.124626 7.94519 -90.1351 10.9838 0.185573 -0.28657 -0.687183 0.172789 -0.294473 -23.2223 0.263109 -0.21755 -3.20965 0.263126 -0.217551 87.9272 -37.0306 -108.033 39.9235 9.92125 0.0833991 -5.44648 -44.0879 -5.53872 -18.9938 2.55637 -20.9689 -86.7641 -57.9337 84.762 -23.9982 -12.6111 -26.316 3.29307 34.6283 -4.36225 13.1684 -3.03435 -25.7121 7.06973 -0.0710145 0.304109 -0.734782 -0.125128 1.56045 
